<svg id="Capa_1" enable-background="new 0 0 512 512" height="512" viewBox="0 0 512 512" width="512" xmlns="http://www.w3.org/2000/svg"><g><path d="m339.06 461.99h-166.12l40.15-107.24h85.82z" fill="#bee3ed"/><path d="m339.06 461.99h-83.06v-107.24h42.91z" fill="#91c3d8"/><path d="m256 303.69-256 16.06v65h512v-65z" fill="#e6f6ff"/><path d="m512 319.75v65h-256v-81.06z" fill="#bee3ed"/><path d="m143.5 452.25h225v30h-225z" fill="#e6f6ff"/><path d="m256 452.25h112.5v30h-112.5z" fill="#bee3ed"/><path d="m0 29.75v290h512v-290z" fill="#48578b"/><path d="m256 29.75h256v290h-256z" fill="#2a396c"/><path d="m30 59.75h452v230h-452z" fill="#28e7ef"/><path d="m256 59.75h226v230h-226z" fill="#1cace7"/><path d="m417 224.75h30v30h-30z" fill="#bee3ed"/><path d="m195 159.75h252v30h-252z" fill="#e6f6ff"/><path d="m195 94.75h252v30h-252z" fill="#e6f6ff"/><path d="m65 224.75h317v30h-317z" fill="#e6f6ff"/><g fill="#bee3ed"><path d="m256 224.75h126v30h-126z"/><path d="m256 94.75h191v30h-191z"/><path d="m256 159.75h191v30h-191z"/></g><path d="m160 189.75h-95v-95h95z" fill="#fedd55"/></g></svg>